<svg width="40" height="40" viewBox="0 0 40 40" fill="none" xmlns="http://www.w3.org/2000/svg">
<path d="M25.1429 0C21.2025 0 17.4235 1.5653 14.6373 4.35156C11.851 7.13781 10.2857 10.9168 10.2857 14.8571C10.2857 18.5371 11.6343 21.92 13.8514 24.5257L13.2343 25.1429H11.4286L0 36.5714L3.42857 40L14.8571 28.5714V26.7657L15.4743 26.1486C18.1702 28.4498 21.5984 29.7141 25.1429 29.7143C29.0832 29.7143 32.8622 28.149 35.6484 25.3627C38.4347 22.5765 40 18.7975 40 14.8571C40 10.9168 38.4347 7.13781 35.6484 4.35156C32.8622 1.5653 29.0832 0 25.1429 0V0ZM25.1429 4.57143C30.8571 4.57143 35.4286 9.14286 35.4286 14.8571C35.4286 20.5714 30.8571 25.1429 25.1429 25.1429C19.4286 25.1429 14.8571 20.5714 14.8571 14.8571C14.8571 9.14286 19.4286 4.57143 25.1429 4.57143Z" fill="#444444"/>
</svg>
